<svg width="21" height="21" viewBox="0 0 21 21" fill="none" xmlns="http://www.w3.org/2000/svg">
<path d="M14.3945 0.107422C14.6597 0.107422 14.9141 0.212779 15.1016 0.400315C15.2892 0.587851 15.3945 0.842205 15.3945 1.10742V4.10742H19.3945C19.6597 4.10742 19.9141 4.21278 20.1016 4.40032C20.2892 4.58785 20.3945 4.84221 20.3945 5.10742V19.1074C20.3945 19.3726 20.2892 19.627 20.1016 19.8145C19.9141 20.0021 19.6597 20.1074 19.3945 20.1074H1.39453C1.12931 20.1074 0.874961 20.0021 0.687424 19.8145C0.499888 19.627 0.394531 19.3726 0.394531 19.1074V5.10742C0.394531 4.84221 0.499888 4.58785 0.687424 4.40032C0.874961 4.21278 1.12931 4.10742 1.39453 4.10742H5.39453V1.10742C5.39453 0.842205 5.49989 0.587851 5.68742 0.400315C5.87496 0.212779 6.12931 0.107422 6.39453 0.107422H14.3945ZM18.3945 6.10742H2.39453V18.1074H18.3945V6.10742ZM11.3945 8.10742V11.1074H14.3945V13.1074H11.3935L11.3945 16.1074H9.39453L9.39353 13.1074H6.39453V11.1074H9.39453V8.10742H11.3945ZM13.3945 2.10742H7.39453V4.10742H13.3945V2.10742Z" fill="black"/>
</svg>
