<svg width="21" height="19" viewBox="0 0 21 19" fill="none" xmlns="http://www.w3.org/2000/svg">
<path d="M6.87875 0.0195312L5.46875 1.42953L8.05875 4.01953H2.71875C1.60875 4.01953 0.71875 4.90953 0.71875 6.01953V16.0195C0.71875 17.1295 1.60875 18.0195 2.71875 18.0195H18.7188C19.8288 18.0195 20.7188 17.1295 20.7188 16.0195V6.01953C20.7188 4.90953 19.8288 4.01953 18.7188 4.01953H13.3787L15.9688 1.42953L14.5588 0.0195312L10.7188 3.85953L6.87875 0.0195312ZM2.71875 6.01953H15.7188V16.0195H2.71875V6.01953ZM18.2188 6.01953C18.484 6.01953 18.7383 6.12489 18.9259 6.31242C19.1134 6.49996 19.2188 6.75431 19.2188 7.01953C19.2188 7.28475 19.1134 7.5391 18.9259 7.72664C18.7383 7.91417 18.484 8.01953 18.2188 8.01953C17.9535 8.01953 17.6992 7.91417 17.5116 7.72664C17.3241 7.5391 17.2188 7.28475 17.2188 7.01953C17.2188 6.75431 17.3241 6.49996 17.5116 6.31242C17.6992 6.12489 17.9535 6.01953 18.2188 6.01953ZM18.2188 9.01953C18.484 9.01953 18.7383 9.12489 18.9259 9.31242C19.1134 9.49996 19.2188 9.75431 19.2188 10.0195C19.2188 10.2847 19.1134 10.5391 18.9259 10.7266C18.7383 10.9142 18.484 11.0195 18.2188 11.0195C17.9535 11.0195 17.6992 10.9142 17.5116 10.7266C17.3241 10.5391 17.2188 10.2847 17.2188 10.0195C17.2188 9.75431 17.3241 9.49996 17.5116 9.31242C17.6992 9.12489 17.9535 9.01953 18.2188 9.01953Z" fill="black"/>
</svg>
