<svg width="19" height="17" viewBox="0 0 19 17" fill="none" xmlns="http://www.w3.org/2000/svg">
<path d="M0.394531 16.2039V14.4098H16.5418V16.2039H0.394531ZM16.5418 4.54199V1.85078H14.7477V4.54199H16.5418ZM16.5418 0.0566406C17.0176 0.0566406 17.474 0.245666 17.8104 0.582132C18.1469 0.918599 18.3359 1.37495 18.3359 1.85078V4.54199C18.3359 5.01783 18.1469 5.47417 17.8104 5.81064C17.474 6.14711 17.0176 6.33613 16.5418 6.33613H14.7477V9.02734C14.7477 9.97902 14.3696 10.8917 13.6967 11.5646C13.0237 12.2376 12.111 12.6156 11.1594 12.6156H5.77695C4.82528 12.6156 3.91259 12.2376 3.23965 11.5646C2.56672 10.8917 2.18867 9.97902 2.18867 9.02734V0.0566406H16.5418ZM12.9535 1.85078H3.98281V9.02734C3.98281 9.50318 4.17184 9.95953 4.5083 10.296C4.84477 10.6325 5.30112 10.8215 5.77695 10.8215H11.1594C11.6352 10.8215 12.0916 10.6325 12.428 10.296C12.7645 9.95953 12.9535 9.50318 12.9535 9.02734V1.85078Z" fill="black"/>
</svg>
