<svg width="26" height="19" viewBox="0 0 26 19" fill="none" xmlns="http://www.w3.org/2000/svg">
<path d="M8.09375 13.9844C8.09375 11.2094 9.36562 8.78125 11.2156 7.04688H2.3125L4.04688 1.84375H16.7656L17.6906 4.73438C18.3844 4.73438 19.0781 4.85 19.6562 5.08125L18.3844 1.26562C18.1531 0.571875 17.4594 0.109375 16.7656 0.109375H4.04688C3.2375 0.109375 2.65937 0.571875 2.42812 1.26562L0 8.20312V17.4531C0 18.0312 0.578125 18.6094 1.15625 18.6094H2.3125C2.89062 18.6094 3.46875 18.0312 3.46875 17.4531V16.2969H8.44063C8.20938 15.6031 8.09375 14.7937 8.09375 13.9844ZM4.04688 12.8281C3.12188 12.8281 2.3125 12.0188 2.3125 11.0938C2.3125 10.1687 3.12188 9.35938 4.04688 9.35938C4.97188 9.35938 5.78125 10.1687 5.78125 11.0938C5.78125 12.0188 4.97188 12.8281 4.04688 12.8281ZM17.3438 18.6094V16.2969H13.875V15.1406H15.0312C16.3031 15.1406 17.3438 14.1 17.3438 12.8281V11.6719C17.3438 10.4 16.3031 9.35938 15.0312 9.35938H11.5625V11.6719H15.0312V12.8281H13.875C12.6031 12.8281 11.5625 13.8687 11.5625 15.1406V18.6094H17.3438ZM25.4375 15.1406H23.125V17.4531H20.8125V15.1406H18.5V12.8281H20.8125V10.5156H23.125V12.8281H25.4375V15.1406Z" fill="black"/>
</svg>
