<svg width="20" height="21" viewBox="0 0 20 21" fill="none" xmlns="http://www.w3.org/2000/svg">
<path d="M9.71875 0.451172C7.94875 0.451172 6.38875 1.62117 5.88875 3.32117C5.35875 3.08117 4.79875 2.95117 4.21875 2.95117C3.15788 2.95117 2.14047 3.3726 1.39032 4.12274C0.640177 4.87289 0.21875 5.89031 0.21875 6.95117C0.21875 8.77117 1.45875 10.3612 3.21875 10.8212V17.9512H16.2188V10.8212C17.9788 10.3612 19.2188 8.77117 19.2188 6.95117C19.2188 5.89031 18.7973 4.87289 18.0472 4.12274C17.297 3.3726 16.2796 2.95117 15.2188 2.95117C14.6388 2.95117 14.0787 3.08117 13.5487 3.32117C13.0487 1.62117 11.4888 0.451172 9.71875 0.451172ZM9.21875 9.45117H10.2188V16.4512H9.21875V9.45117ZM6.21875 11.4512H7.21875V16.4512H6.21875V11.4512ZM12.2188 11.4512H13.2188V16.4512H12.2188V11.4512ZM3.21875 18.9512V19.9512C3.21875 20.2164 3.32411 20.4707 3.51164 20.6583C3.69918 20.8458 3.95353 20.9512 4.21875 20.9512H15.2188C15.484 20.9512 15.7383 20.8458 15.9259 20.6583C16.1134 20.4707 16.2188 20.2164 16.2188 19.9512V18.9512H3.21875Z" fill="black"/>
</svg>
