<svg width="20" height="24" viewBox="0 0 20 24" fill="none" xmlns="http://www.w3.org/2000/svg">
<path d="M12.4786 0.191406L11.8586 1.56141L10.4786 2.19141L11.8586 2.82141L12.4786 4.19141L13.1086 2.82141L14.4786 2.19141L13.1086 1.56141L12.4786 0.191406ZM7.97859 2.19141L6.88859 4.60141L4.47859 5.69141L6.88859 6.78141L7.97859 9.19141L9.07859 6.78141L11.4786 5.69141L9.07859 4.60141L7.97859 2.19141ZM16.3686 5.33141C15.0386 5.25141 13.5186 5.84141 12.3186 7.03141C10.7286 8.62141 10.2286 10.7714 10.9386 12.3014L1.17859 22.0614L2.58859 23.4714L9.47859 16.6014L16.3586 23.4814L17.7686 22.0714L10.8886 15.1914L12.3586 13.7214C13.8886 14.4314 16.0386 13.9314 17.6286 12.3414C19.5386 10.4314 19.9086 7.69141 18.4386 6.22141C17.8886 5.69141 17.1586 5.38141 16.3686 5.33141ZM1.38859 5.69141C0.639437 6.44272 0.21875 7.46042 0.21875 8.52141C0.21875 9.58239 0.639437 10.6001 1.38859 11.3514L5.57859 15.5314L8.40859 12.6914L1.38859 5.69141Z" fill="black"/>
</svg>
