<svg width="20" height="25" viewBox="0 0 20 25" fill="none" xmlns="http://www.w3.org/2000/svg">
<path d="M16.7817 0.636719H2.65186C2.02728 0.636719 1.42828 0.884832 0.986633 1.32648C0.544988 1.76812 0.296875 2.36712 0.296875 2.9917V21.8315C0.296875 22.4561 0.544988 23.0551 0.986633 23.4968C1.42828 23.9384 2.02728 24.1865 2.65186 24.1865H16.7817C17.4063 24.1865 18.0053 23.9384 18.447 23.4968C18.8886 23.0551 19.1367 22.4561 19.1367 21.8315V2.9917C19.1367 2.36712 18.8886 1.76812 18.447 1.32648C18.0053 0.884832 17.4063 0.636719 16.7817 0.636719ZM7.36182 2.9917C7.67411 2.9917 7.97361 3.11576 8.19443 3.33658C8.41525 3.5574 8.53931 3.8569 8.53931 4.16919C8.53931 4.48148 8.41525 4.78098 8.19443 5.0018C7.97361 5.22262 7.67411 5.34668 7.36182 5.34668C7.04953 5.34668 6.75003 5.22262 6.52921 5.0018C6.30838 4.78098 6.18433 4.48148 6.18433 4.16919C6.18433 3.8569 6.30838 3.5574 6.52921 3.33658C6.75003 3.11576 7.04953 2.9917 7.36182 2.9917ZM3.82935 2.9917C4.14164 2.9917 4.44113 3.11576 4.66196 3.33658C4.88278 3.5574 5.00684 3.8569 5.00684 4.16919C5.00684 4.48148 4.88278 4.78098 4.66196 5.0018C4.44113 5.22262 4.14164 5.34668 3.82935 5.34668C3.51706 5.34668 3.21756 5.22262 2.99673 5.0018C2.77591 4.78098 2.65186 4.48148 2.65186 4.16919C2.65186 3.8569 2.77591 3.5574 2.99673 3.33658C3.21756 3.11576 3.51706 2.9917 3.82935 2.9917ZM16.7817 21.8315H2.65186V7.70166H16.7817V21.8315ZM12.8607 16.3327C12.8842 17.1569 12.5545 17.9576 11.9658 18.5463C10.7294 19.7827 8.71593 19.7945 7.46779 18.5463C6.87905 17.9576 6.54935 17.1569 6.5729 16.3327C6.65532 15.4966 6.92615 14.696 7.36182 13.9777C7.79749 13.0004 8.31558 12.0937 8.92788 11.2341L9.7168 10.0566C11.8245 13.1063 12.8607 15.1905 12.8607 16.3327Z" fill="black"/>
</svg>
