<svg width="19" height="21" viewBox="0 0 19 21" fill="none" xmlns="http://www.w3.org/2000/svg">
<path d="M1.71875 20.6738H17.7188C17.984 20.6738 18.2383 20.5685 18.4259 20.3809C18.6134 20.1934 18.7188 19.939 18.7188 19.6738V3.67383C18.7188 2.01983 17.3727 0.673828 15.7188 0.673828H3.71875C2.06475 0.673828 0.71875 2.01983 0.71875 3.67383V19.6738C0.71875 19.939 0.824107 20.1934 1.01164 20.3809C1.19918 20.5685 1.45353 20.6738 1.71875 20.6738ZM15.7188 2.59783C15.8501 2.59783 15.9801 2.62369 16.1014 2.67395C16.2228 2.7242 16.333 2.79786 16.4259 2.89072C16.5187 2.98358 16.5924 3.09382 16.6426 3.21514C16.6929 3.33647 16.7188 3.46651 16.7188 3.59783C16.7188 3.72915 16.6929 3.85919 16.6426 3.98051C16.5924 4.10184 16.5187 4.21208 16.4259 4.30493C16.333 4.39779 16.2228 4.47145 16.1014 4.52171C15.9801 4.57196 15.8501 4.59783 15.7188 4.59783C15.4535 4.59783 15.1992 4.49247 15.0116 4.30493C14.8241 4.1174 14.7188 3.86304 14.7188 3.59783C14.7188 3.33261 14.8241 3.07826 15.0116 2.89072C15.1992 2.70318 15.4535 2.59783 15.7188 2.59783ZM12.7188 2.59783C12.8501 2.59783 12.9801 2.62369 13.1014 2.67395C13.2228 2.7242 13.333 2.79786 13.4259 2.89072C13.5187 2.98358 13.5924 3.09382 13.6426 3.21514C13.6929 3.33647 13.7188 3.46651 13.7188 3.59783C13.7188 3.72915 13.6929 3.85919 13.6426 3.98051C13.5924 4.10184 13.5187 4.21208 13.4259 4.30493C13.333 4.39779 13.2228 4.47145 13.1014 4.52171C12.9801 4.57196 12.8501 4.59783 12.7188 4.59783C12.4535 4.59783 12.1992 4.49247 12.0116 4.30493C11.8241 4.1174 11.7188 3.86304 11.7188 3.59783C11.7188 3.33261 11.8241 3.07826 12.0116 2.89072C12.1992 2.70318 12.4535 2.59783 12.7188 2.59783ZM9.71875 5.71483C13.0278 5.71483 15.7188 8.40583 15.7188 11.7148C15.7188 15.0238 13.0278 17.7148 9.71875 17.7148C6.40975 17.7148 3.71875 15.0238 3.71875 11.7148C3.71875 8.40583 6.40975 5.71483 9.71875 5.71483Z" fill="black"/>
<path d="M7.03709 10.9388C6.62209 11.3228 5.99609 11.9028 5.99609 13.0058C5.99609 14.1098 6.62209 14.6898 7.03709 15.0738C7.38909 15.3988 7.43709 15.4718 7.43709 15.6738H9.43709C9.43709 14.5698 8.81109 13.9898 8.39609 13.6058C8.04409 13.2808 7.99609 13.2078 7.99609 13.0058C7.99609 12.8038 8.04409 12.7308 8.39609 12.4058C8.81009 12.0218 9.43709 11.4418 9.43709 10.3378C9.43709 9.23483 8.81109 8.65483 8.39609 8.27183C8.04509 7.94683 7.99709 7.87483 7.99709 7.67383H5.99709C5.99709 8.77783 6.62409 9.35683 7.03909 9.73983C7.39009 10.0638 7.43809 10.1358 7.43809 10.3368C7.43709 10.5398 7.38809 10.6128 7.03709 10.9388ZM11.0371 10.9388C10.6231 11.3228 9.99709 11.9028 9.99709 13.0058C9.99709 14.1088 10.6231 14.6898 11.0371 15.0728C11.3881 15.3978 11.4361 15.4708 11.4361 15.6738H13.4361C13.4361 14.5698 12.8101 13.9898 12.3961 13.6068C12.0451 13.2818 11.9971 13.2088 11.9971 13.0058C11.9971 12.8028 12.0461 12.7308 12.3961 12.4048C12.8101 12.0208 13.4361 11.4408 13.4361 10.3368C13.4361 9.23383 12.8101 8.65483 12.3961 8.27183C12.0461 7.94783 11.9971 7.87483 11.9971 7.67383H9.99709C9.99709 8.77683 10.6231 9.35683 11.0381 9.73983C11.3881 10.0638 11.4361 10.1368 11.4361 10.3378C11.4371 10.5398 11.3881 10.6128 11.0371 10.9388Z" fill="black"/>
</svg>
