<svg width="20" height="26" viewBox="0 0 20 26" fill="none" xmlns="http://www.w3.org/2000/svg">
<path d="M9.71704 0.494141C8.3648 0.494141 7.21231 1.37681 6.77516 2.58577H5.53377C2.66196 2.58577 0.304688 4.94305 0.304688 7.81486H2.39632C2.39632 6.98276 2.72687 6.18473 3.31526 5.59635C3.90365 5.00796 4.70167 4.67741 5.53377 4.67741H6.57959V7.25953C6.24493 7.50844 5.81196 7.86401 5.30474 8.37019C4.4388 9.23717 3.44214 10.4294 3.44214 11.9981V25.5938H15.9919V11.9981C15.9919 10.4294 14.9953 9.23717 14.1293 8.37019C13.7321 7.96966 13.306 7.59879 12.8545 7.26058V6.9667L17.9204 7.81591L19.1294 8.01252V1.3423L17.9204 1.53996L12.593 2.42263C12.1151 1.29942 11.0076 0.494141 9.71704 0.494141ZM9.71704 2.58577C10.2975 2.58577 10.7629 3.05116 10.7629 3.63159V6.76904H8.67122V3.63159C8.67122 3.05116 9.13661 2.58577 9.71704 2.58577ZM17.0378 3.82821V5.52766L12.8545 4.80814V4.54668L17.0378 3.82821ZM8.01759 8.86068H11.4165C11.5755 8.97049 12.021 9.26855 12.6255 9.87407C13.3282 10.5758 13.9003 11.4752 13.9003 11.9981V23.5021H5.53377V11.9981C5.53377 11.4752 6.10583 10.5758 6.80862 9.87407C7.41311 9.26959 7.85862 8.97049 8.01759 8.86068ZM7.62541 14.0898V16.1814H11.8087V14.0898H7.62541Z" fill="black"/>
</svg>
