<svg width="21" height="20" viewBox="0 0 21 20" fill="none" xmlns="http://www.w3.org/2000/svg">
<path d="M20.7188 19.1504H0.71875V17.1504H20.7188V19.1504ZM20.7188 3.15039H0.71875V0.150391H20.7188V3.15039ZM18.7188 4.15039V16.1504H15.7188V8.15039C15.7188 8.15039 13.2188 7.15039 10.7188 7.15039C8.21875 7.15039 5.71875 8.15039 5.71875 8.15039V16.1504H2.71875V4.15039H18.7188ZM13.2188 11.8204H13.1888L13.5288 12.3704L13.5887 12.4904C14.0087 13.5004 13.7188 14.6504 12.9288 15.3904C12.2188 16.0504 11.2188 16.2204 10.2987 16.1004C9.42875 15.9904 8.61875 15.4404 8.16875 14.6804C8.01875 14.4504 7.90875 14.1804 7.84875 13.9204L7.71875 13.2604C7.67875 12.3004 8.05875 11.2904 8.77875 10.6904C8.44875 11.4104 8.52875 12.3104 9.01875 12.9404L9.07875 13.0204C9.15875 13.0904 9.26875 13.1204 9.35875 13.0704C9.44875 13.0404 9.51875 12.9504 9.51875 12.8504L9.47875 12.7104C8.94875 11.3204 9.39875 9.70039 10.5087 8.78039C10.8188 8.53039 11.2188 8.30039 11.5887 8.20039C11.1788 9.02039 11.3287 10.0804 11.9688 10.7204L12.8588 11.4504L13.2188 11.8204ZM11.8287 14.5904C12.0887 14.3504 12.2487 13.9504 12.2188 13.5904V13.4004C12.0988 12.8004 11.5688 12.6104 11.2188 12.1504L10.9788 11.7004C10.8488 12.0004 10.8387 12.2804 10.8888 12.6104C10.9488 12.9504 11.0887 13.2404 11.0087 13.5904C10.9187 13.9804 10.6187 14.3704 10.0887 14.5004C10.3888 14.7904 10.8688 15.0204 11.3588 14.8604L11.8287 14.5904Z" fill="black"/>
</svg>
