<svg width="21" height="21" viewBox="0 0 21 21" fill="none" xmlns="http://www.w3.org/2000/svg">
<path d="M16.217 0.150392C17.1339 0.15046 18.0289 0.430596 18.7821 0.9533C19.5354 1.476 20.111 2.21633 20.432 3.07519C20.7529 3.93405 20.8039 4.87045 20.578 5.75906C20.3521 6.64766 19.8601 7.44606 19.168 8.04739C19.5323 9.04134 19.7181 10.0918 19.717 11.1504C19.7163 12.4653 19.4274 13.764 18.8708 14.9553C18.3142 16.1466 17.5033 17.2014 16.4952 18.0456C15.4871 18.8898 14.3062 19.5028 13.0357 19.8416C11.7652 20.1803 10.4359 20.2366 9.14134 20.0064C7.84675 19.7762 6.61834 19.2651 5.54251 18.5091C4.46667 17.7531 3.56956 16.7706 2.91427 15.6306C2.25899 14.4906 1.86145 13.2209 1.74963 11.9108C1.6378 10.6006 1.81441 9.28193 2.26702 8.04739C1.77711 7.62165 1.38509 7.09497 1.11786 6.50349C0.85063 5.912 0.714514 5.26971 0.71885 4.62067C0.723187 3.97163 0.867872 3.33121 1.14298 2.74335C1.41809 2.15549 1.81711 1.63409 2.31267 1.21494C2.80822 0.795785 3.38859 0.48879 4.01395 0.315016C4.6393 0.141243 5.29485 0.104805 5.93561 0.2082C6.57638 0.311596 7.18719 0.552379 7.72615 0.91403C8.26511 1.27568 8.71945 1.74964 9.05802 2.30339C10.1552 2.09866 11.2808 2.09866 12.378 2.30339C12.7796 1.64541 13.3436 1.10177 14.0159 0.724725C14.6882 0.347677 15.4462 0.149896 16.217 0.150392ZM16.217 2.15039C15.394 2.15039 14.642 2.55039 14.179 3.20239L14.084 3.34639L13.366 4.52239L12.011 4.26939C11.2631 4.12985 10.4975 4.11229 9.74402 4.21739L9.42802 4.26939L8.07202 4.52439L7.35202 3.34839C7.16804 3.04704 6.92231 2.78808 6.63102 2.58856C6.33973 2.38903 6.00948 2.25347 5.66201 2.1908C5.31455 2.12813 4.95775 2.13977 4.6151 2.22495C4.27246 2.31013 3.95175 2.46692 3.67408 2.68501C3.39641 2.90309 3.16808 3.17751 3.00413 3.49021C2.84018 3.80291 2.74432 4.14679 2.72287 4.49921C2.70142 4.85163 2.75486 5.2046 2.87968 5.53487C3.00449 5.86515 3.19785 6.16524 3.44702 6.41539L3.57802 6.53839L4.61902 7.44239L4.14402 8.73739C3.79235 9.69754 3.65531 10.7231 3.74253 11.7419C3.82975 12.7607 4.13911 13.748 4.64885 14.6344C5.1586 15.5208 5.85635 16.2848 6.69304 16.8726C7.52973 17.4604 8.48504 17.8578 9.49178 18.0367C10.4985 18.2157 11.5322 18.172 12.5203 17.9086C13.5083 17.6451 14.4266 17.1685 15.2106 16.5121C15.9946 15.8557 16.6253 15.0355 17.0584 14.1092C17.4914 13.1828 17.7162 12.1729 17.717 11.1504C17.717 10.4344 17.61 9.73439 17.403 9.06739L17.291 8.73739L16.816 7.44239L17.856 6.53839C18.2408 6.20441 18.5143 5.76084 18.64 5.26707C18.7657 4.7733 18.7375 4.25293 18.5592 3.77563C18.381 3.29832 18.0611 2.88689 17.6425 2.59643C17.2239 2.30596 16.7265 2.15034 16.217 2.15039ZM8.71702 11.1504C8.71702 11.6808 8.92773 12.1895 9.3028 12.5646C9.67788 12.9397 10.1866 13.1504 10.717 13.1504C11.2475 13.1504 11.7562 12.9397 12.1312 12.5646C12.5063 12.1895 12.717 11.6808 12.717 11.1504H14.717C14.717 12.2113 14.2956 13.2287 13.5454 13.9788C12.7953 14.729 11.7779 15.1504 10.717 15.1504C9.65615 15.1504 8.63874 14.729 7.88859 13.9788C7.13845 13.2287 6.71702 12.2113 6.71702 11.1504H8.71702Z" fill="black"/>
</svg>
