<svg width="18" height="21" viewBox="0 0 18 21" fill="none" xmlns="http://www.w3.org/2000/svg">
<path d="M5.52349 11.7063C3.85788 11.7063 2.49859 10.3566 2.49859 8.70057C2.49859 8.02093 2.74747 7.37 3.15909 6.85308C2.75705 6.33617 2.49859 5.68524 2.49859 5.00559C2.49859 3.34955 3.86745 1.99983 5.52349 1.99983L5.93511 2.02855C6.38502 0.927715 7.46671 0.152344 8.7207 0.152344C9.9747 0.152344 11.0564 0.927715 11.5063 2.02855L11.9179 1.99983C13.574 1.99983 14.9428 3.34955 14.9428 5.00559C14.9428 5.68524 14.6939 6.33617 14.2823 6.85308C14.6844 7.37 14.9428 8.02093 14.9428 8.70057C14.9428 10.3566 13.574 11.7063 11.9179 11.7063L11.5063 11.6776C11.0564 12.7784 9.9747 13.5538 8.7207 13.5538C7.46671 13.5538 6.38502 12.7784 5.93511 11.6776L5.52349 11.7063ZM8.7207 11.6393C9.3142 11.6393 9.79282 11.1607 9.81197 10.5864L9.70667 9.54295C9.40035 9.65782 9.06531 9.72483 8.7207 9.72483C8.37609 9.72483 8.05063 9.65782 7.76345 9.54295L7.62944 10.5864C7.64858 11.1607 8.12721 11.6393 8.7207 11.6393ZM11.9179 9.79183C12.521 9.79183 13.0283 9.30364 13.0283 8.691C13.0283 8.28895 12.7699 7.88691 12.387 7.70503L11.5446 7.30299C11.4297 8.01135 11.0564 8.62399 10.5299 9.05475L11.3053 9.60038C11.4776 9.72483 11.6882 9.79183 11.9179 9.79183ZM11.2957 4.10578L10.5108 4.64184C11.0468 5.0726 11.4201 5.68524 11.535 6.37446L12.3774 5.99156C12.7699 5.80011 13.0283 5.41721 13.0283 5.00559C13.0283 4.40253 12.521 3.91433 11.9179 3.91433C11.6977 3.91433 11.4872 3.98134 11.2957 4.10578ZM8.7207 2.06684C8.12721 2.06684 7.64858 2.54546 7.62944 3.11981L7.76345 4.16321C8.05063 4.04834 8.37609 3.98134 8.7207 3.98134C9.06531 3.98134 9.40035 4.04834 9.70667 4.16321L9.81197 3.11981C9.79282 2.54546 9.3142 2.06684 8.7207 2.06684ZM5.52349 3.91433C4.92043 3.91433 4.41309 4.40253 4.41309 5.00559C4.41309 5.41721 4.67154 5.80011 5.05444 5.99156L5.89682 6.37446C6.01169 5.68524 6.38502 5.0726 6.9115 4.64184L6.13613 4.10578C5.96383 3.98134 5.75323 3.91433 5.52349 3.91433ZM5.05444 7.71461C4.67154 7.90605 4.41309 8.28895 4.41309 8.691C4.41309 9.29407 4.92043 9.78226 5.52349 9.78226C5.74366 9.78226 5.95426 9.72483 6.14571 9.59081L6.92108 9.06433C6.38502 8.63356 6.01169 8.02093 5.89682 7.33171L5.05444 7.71461ZM8.7207 20.2546C6.4358 20.2546 4.24448 19.3469 2.62881 17.7312C1.01314 16.1155 0.105469 13.9242 0.105469 11.6393C2.39037 11.6393 4.58169 12.547 6.19736 14.1627C7.81303 15.7783 8.7207 17.9697 8.7207 20.2546C8.7207 17.9697 9.62838 15.7783 11.244 14.1627C12.8597 12.547 15.051 11.6393 17.3359 11.6393C17.3359 13.9242 16.4283 16.1155 14.8126 17.7312C13.1969 19.3469 11.0056 20.2546 8.7207 20.2546ZM11.0564 17.9189C12.8752 17.2392 14.3206 15.7938 15.0003 13.975C13.1815 14.6451 11.736 16.1001 11.0564 17.9189ZM2.44115 13.975C3.1208 15.7938 4.56625 17.2392 6.38502 17.9189C5.71494 16.1001 4.25993 14.6547 2.44115 13.975Z" fill="black"/>
</svg>
