<svg width="21" height="20" viewBox="0 0 21 20" fill="none" xmlns="http://www.w3.org/2000/svg">
<path d="M5.35156 1.45312C5.882 1.45312 6.3907 1.66384 6.76578 2.03891C7.14085 2.41398 7.35156 2.92269 7.35156 3.45312C7.35156 3.98356 7.14085 4.49227 6.76578 4.86734C6.3907 5.24241 5.882 5.45312 5.35156 5.45312C4.82113 5.45312 4.31242 5.24241 3.93735 4.86734C3.56228 4.49227 3.35156 3.98356 3.35156 3.45312C3.35156 2.92269 3.56228 2.41398 3.93735 2.03891C4.31242 1.66384 4.82113 1.45312 5.35156 1.45312ZM9.50156 9.45312H20.3516V17.4531C20.3516 17.9836 20.1408 18.4923 19.7658 18.8673C19.3907 19.2424 18.882 19.4531 18.3516 19.4531H2.35156C1.82113 19.4531 1.31242 19.2424 0.937349 18.8673C0.562276 18.4923 0.351563 17.9836 0.351562 17.4531V9.45312H3.35156V8.70312C3.35156 7.45312 4.35156 6.45312 5.60156 6.45312H5.63156C5.97156 6.45312 6.30156 6.54312 6.59156 6.68312C6.85156 6.80312 7.09156 6.95312 7.28156 7.18312L8.68156 8.73312C8.91156 8.99312 9.19156 9.23312 9.50156 9.45312ZM5.35156 17.4531V11.4531H3.35156V17.4531H5.35156ZM9.35156 17.4531V11.4531H7.35156V17.4531H9.35156ZM13.3516 17.4531V11.4531H11.3516V17.4531H13.3516ZM17.3516 17.4531V11.4531H15.3516V17.4531H17.3516ZM17.0016 3.31313C18.0316 4.31313 18.5116 5.66312 18.3016 7.02312L18.2416 7.45312H16.3516L16.4416 6.86312C16.5916 6.07312 16.3516 5.28312 15.7716 4.66313L15.7016 4.60313C14.6716 3.59313 14.2016 2.24313 14.4016 0.883125L14.4616 0.453125H16.3516L16.2616 1.04312C16.1116 1.83312 16.3516 2.62313 16.9316 3.24312L17.0016 3.31313ZM13.0016 3.31313C14.0316 4.31313 14.5116 5.66312 14.3016 7.02312L14.2416 7.45312H12.3516L12.4416 6.86312C12.5916 6.07312 12.3516 5.28312 11.7716 4.66313L11.7016 4.60313C10.6716 3.59313 10.2016 2.24313 10.4016 0.883125L10.4616 0.453125H12.3516L12.2616 1.04312C12.1116 1.83312 12.3516 2.62313 12.9316 3.24312L13.0016 3.31313Z" fill="black"/>
</svg>
