<svg width="25" height="19" viewBox="0 0 25 19" fill="none" xmlns="http://www.w3.org/2000/svg">
<path d="M2.47852 0.789062C1.82117 0.789063 1.19075 1.05019 0.72594 1.515C0.261128 1.97981 0 2.61023 0 3.26758V15.6602C0 16.3175 0.261128 16.9479 0.72594 17.4127C1.19075 17.8775 1.82117 18.1387 2.47852 18.1387H22.3066C22.964 18.1387 23.5944 17.8775 24.0592 17.4127C24.524 16.9479 24.7852 16.3175 24.7852 15.6602V3.26758C24.7852 2.61023 24.524 1.97981 24.0592 1.515C23.5944 1.05019 22.964 0.789063 22.3066 0.789062H2.47852ZM2.47852 3.26758H17.3496V15.6602H2.47852V3.26758ZM21.0674 3.26758C21.3961 3.26758 21.7113 3.39814 21.9437 3.63055C22.1761 3.86295 22.3066 4.17816 22.3066 4.50684C22.3066 4.83551 22.1761 5.15072 21.9437 5.38312C21.7113 5.61553 21.3961 5.74609 21.0674 5.74609C20.7387 5.74609 20.4235 5.61553 20.1911 5.38312C19.9587 5.15072 19.8281 4.83551 19.8281 4.50684C19.8281 4.17816 19.9587 3.86295 20.1911 3.63055C20.4235 3.39814 20.7387 3.26758 21.0674 3.26758ZM13.6318 5.74609V13.1816H16.1104V5.74609H13.6318ZM21.0674 8.22461C21.3961 8.22461 21.7113 8.35517 21.9437 8.58758C22.1761 8.81999 22.3066 9.1352 22.3066 9.46387C22.3066 9.79254 22.1761 10.1077 21.9437 10.3402C21.7113 10.5726 21.3961 10.7031 21.0674 10.7031C20.7387 10.7031 20.4235 10.5726 20.1911 10.3402C19.9587 10.1077 19.8281 9.79254 19.8281 9.46387C19.8281 9.1352 19.9587 8.81999 20.1911 8.58758C20.4235 8.35517 20.7387 8.22461 21.0674 8.22461Z" fill="black"/>
</svg>
