<svg width="23" height="22" viewBox="0 0 23 22" fill="none" xmlns="http://www.w3.org/2000/svg">
<path d="M20.3616 0.359375H3.07589C1.77455 0.359375 0.71875 1.36719 0.71875 2.60938V19.1094C0.71875 20.3516 1.77455 21.3594 3.07589 21.3594H20.3616C21.6629 21.3594 22.7188 20.3516 22.7188 19.1094V2.60938C22.7188 1.36719 21.6629 0.359375 20.3616 0.359375ZM12.5045 13.8594H10.1473V16.1094C10.1473 16.5219 9.79375 16.8594 9.36161 16.8594H7.79018C7.35804 16.8594 7.00446 16.5219 7.00446 16.1094V5.60938C7.00446 5.19688 7.35804 4.85938 7.79018 4.85938H12.5045C15.1022 4.85938 17.2188 6.87969 17.2188 9.35938C17.2188 11.8391 15.1022 13.8594 12.5045 13.8594ZM12.5045 7.85938H10.1473V10.8594H12.5045C13.3687 10.8594 14.0759 10.1844 14.0759 9.35938C14.0759 8.53438 13.3687 7.85938 12.5045 7.85938Z" fill="black"/>
</svg>
