<svg width="17" height="26" viewBox="0 0 17 26" fill="none" xmlns="http://www.w3.org/2000/svg">
<path fill-rule="evenodd" clip-rule="evenodd" d="M0.8125 4.31827C0.8125 3.41956 1.16951 2.55766 1.80499 1.92218C2.44048 1.2867 3.30238 0.929688 4.20108 0.929688H13.2373C14.136 0.929688 14.9979 1.2867 15.6334 1.92218C16.2689 2.55766 16.6259 3.41956 16.6259 4.31827V22.3907C16.6259 23.2894 16.2689 24.1513 15.6334 24.7868C14.9979 25.4223 14.136 25.7793 13.2373 25.7793H4.20108C3.30238 25.7793 2.44048 25.4223 1.80499 24.7868C1.16951 24.1513 0.8125 23.2894 0.8125 22.3907V4.31827ZM4.20108 3.18874H13.2373C13.5369 3.18874 13.8242 3.30775 14.036 3.51957C14.2478 3.7314 14.3668 4.0187 14.3668 4.31827V11.0954H3.07156V4.31827C3.07156 4.0187 3.19056 3.7314 3.40239 3.51957C3.61421 3.30775 3.90151 3.18874 4.20108 3.18874ZM3.07156 13.3545H14.3668V22.3907C14.3668 22.6903 14.2478 22.9776 14.036 23.1894C13.8242 23.4012 13.5369 23.5202 13.2373 23.5202H4.20108C3.90151 23.5202 3.61421 23.4012 3.40239 23.1894C3.19056 22.9776 3.07156 22.6903 3.07156 22.3907V13.3545Z" fill="black"/>
</svg>
