<svg width="21" height="23" viewBox="0 0 21 23" fill="none" xmlns="http://www.w3.org/2000/svg">
<path d="M8.35172 11.1831C10.7131 10.7264 13.0495 10.149 15.3517 9.45312V2.45312C15.3517 2.45312 8.85172 0.453125 5.85172 0.453125C4.51622 0.456884 3.2277 0.946443 2.22664 1.83044C1.22558 2.71444 0.58036 3.93248 0.411396 5.25726C0.242432 6.58204 0.561266 7.92304 1.3084 9.03C2.05553 10.137 3.17991 10.9343 4.47172 11.2731L5.35172 17.4531H6.35172C6.39171 17.9298 6.54509 18.3899 6.79906 18.7952C7.05303 19.2006 7.40024 19.5393 7.81172 19.7831C8.27565 20.059 8.66093 20.4494 8.9306 20.9169C9.20027 21.3844 9.34528 21.9134 9.35172 22.4531H10.3517C10.3472 21.7642 10.17 21.0875 9.83629 20.4848C9.50262 19.8821 9.02314 19.3726 8.44172 19.0031C7.74172 18.4531 7.35172 18.0831 7.35172 17.4531H8.35172V11.1831ZM2.35172 5.95312C2.35172 5.02487 2.72047 4.13463 3.37685 3.47825C4.03322 2.82187 4.92346 2.45312 5.85172 2.45312C8.39674 2.69326 10.9101 3.19593 13.3517 3.95312V7.95312C10.9101 8.71032 8.39674 9.21299 5.85172 9.45312C4.92346 9.45312 4.03322 9.08438 3.37685 8.428C2.72047 7.77162 2.35172 6.88138 2.35172 5.95312ZM20.3517 7.45312C19.5757 7.47257 18.8089 7.28257 18.1317 6.90312C17.5909 6.59273 16.9751 6.43706 16.3517 6.45312V5.45312C17.1277 5.43368 17.8946 5.62368 18.5717 6.00313C19.1126 6.31352 19.7283 6.46919 20.3517 6.45312V7.45312ZM20.3517 4.45312C19.7283 4.46919 19.1126 4.31352 18.5717 4.00313C17.8946 3.62368 17.1277 3.43368 16.3517 3.45312V4.45312C16.9751 4.43706 17.5909 4.59273 18.1317 4.90312C18.8089 5.28257 19.5757 5.47257 20.3517 5.45312V4.45312ZM20.3517 8.45312C19.7283 8.46919 19.1126 8.31352 18.5717 8.00313C17.8946 7.62368 17.1277 7.43368 16.3517 7.45312V8.45312C16.9751 8.43706 17.5909 8.59273 18.1317 8.90312C18.8089 9.28257 19.5757 9.47257 20.3517 9.45312V8.45312ZM7.35172 5.95312C7.35172 6.2498 7.26375 6.53981 7.09892 6.78648C6.9341 7.03315 6.69983 7.22541 6.42574 7.33894C6.15166 7.45248 5.85006 7.48218 5.55908 7.4243C5.26811 7.36643 5.00084 7.22356 4.79106 7.01379C4.58128 6.80401 4.43842 6.53673 4.38054 6.24576C4.32266 5.95479 4.35237 5.65319 4.4659 5.3791C4.57943 5.10501 4.77169 4.87074 5.01836 4.70592C5.26504 4.5411 5.55505 4.45312 5.85172 4.45312C6.24954 4.45312 6.63108 4.61116 6.91238 4.89246C7.19368 5.17377 7.35172 5.5553 7.35172 5.95312Z" fill="black"/>
</svg>
