<svg width="21" height="21" viewBox="0 0 21 21" fill="none" xmlns="http://www.w3.org/2000/svg">
<path d="M4.71875 12.8457H6.71875L9.71875 15.8457H7.71875L4.71875 12.8457ZM2.71875 2.8457H3.71875V1.8457C3.71875 1.58049 3.82411 1.32613 4.01164 1.1386C4.19918 0.95106 4.45353 0.845703 4.71875 0.845703H8.71875C8.98397 0.845703 9.23832 0.95106 9.42586 1.1386C9.61339 1.32613 9.71875 1.58049 9.71875 1.8457V2.8457H11.7188V1.8457C11.7188 1.58049 11.8241 1.32613 12.0116 1.1386C12.1992 0.95106 12.4535 0.845703 12.7188 0.845703H16.7188C16.984 0.845703 17.2383 0.95106 17.4259 1.1386C17.6134 1.32613 17.7188 1.58049 17.7188 1.8457V2.8457H18.7188C19.2492 2.8457 19.7579 3.05642 20.133 3.43149C20.508 3.80656 20.7188 4.31527 20.7188 4.8457V17.8457C20.7188 18.3761 20.508 18.8848 20.133 19.2599C19.7579 19.635 19.2492 19.8457 18.7188 19.8457V20.8457H15.7188V19.8457H5.71875V20.8457H2.71875V19.8457C2.18832 19.8457 1.67961 19.635 1.30454 19.2599C0.929464 18.8848 0.71875 18.3761 0.71875 17.8457V4.8457C0.71875 4.31527 0.929464 3.80656 1.30454 3.43149C1.67961 3.05642 2.18832 2.8457 2.71875 2.8457ZM16.7188 5.8457C16.984 5.8457 17.2383 5.95106 17.4259 6.1386C17.6134 6.32613 17.7188 6.58049 17.7188 6.8457C17.7188 7.11092 17.6134 7.36527 17.4259 7.55281C17.2383 7.74035 16.984 7.8457 16.7188 7.8457C16.4535 7.8457 16.1992 7.74035 16.0116 7.55281C15.8241 7.36527 15.7188 7.11092 15.7188 6.8457C15.7188 6.58049 15.8241 6.32613 16.0116 6.1386C16.1992 5.95106 16.4535 5.8457 16.7188 5.8457ZM12.7188 5.8457C12.984 5.8457 13.2383 5.95106 13.4259 6.1386C13.6134 6.32613 13.7188 6.58049 13.7188 6.8457C13.7188 7.11092 13.6134 7.36527 13.4259 7.55281C13.2383 7.74035 12.984 7.8457 12.7188 7.8457C12.4535 7.8457 12.1992 7.74035 12.0116 7.55281C11.8241 7.36527 11.7188 7.11092 11.7188 6.8457C11.7188 6.58049 11.8241 6.32613 12.0116 6.1386C12.1992 5.95106 12.4535 5.8457 12.7188 5.8457ZM18.7188 4.8457H2.71875V8.8457H18.7188V4.8457ZM2.71875 17.8457H18.7188V10.8457H2.71875V17.8457ZM4.71875 5.8457C4.98397 5.8457 5.23832 5.95106 5.42586 6.1386C5.61339 6.32613 5.71875 6.58049 5.71875 6.8457C5.71875 7.11092 5.61339 7.36527 5.42586 7.55281C5.23832 7.74035 4.98397 7.8457 4.71875 7.8457C4.45353 7.8457 4.19918 7.74035 4.01164 7.55281C3.82411 7.36527 3.71875 7.11092 3.71875 6.8457C3.71875 6.58049 3.82411 6.32613 4.01164 6.1386C4.19918 5.95106 4.45353 5.8457 4.71875 5.8457ZM11.7188 12.8457H13.7188L16.7188 15.8457H14.7188L11.7188 12.8457Z" fill="black"/>
</svg>
