<svg width="23" height="19" viewBox="0 0 23 19" fill="none" xmlns="http://www.w3.org/2000/svg">
<path d="M20.7188 14.1504H2.71875V2.15039H20.7188V14.1504ZM20.7188 0.150391H2.71875C2.18832 0.150391 1.67961 0.361104 1.30454 0.736177C0.929464 1.11125 0.71875 1.61996 0.71875 2.15039V14.1504C0.71875 14.6808 0.929464 15.1895 1.30454 15.5646C1.67961 15.9397 2.18832 16.1504 2.71875 16.1504H7.71875V18.1504H15.7188V16.1504H20.7188C21.2492 16.1504 21.7579 15.9397 22.133 15.5646C22.508 15.1895 22.7188 14.6808 22.7188 14.1504V2.15039C22.7188 1.61996 22.508 1.11125 22.133 0.736177C21.7579 0.361104 21.2492 0.150391 20.7188 0.150391Z" fill="black"/>
</svg>
