<svg width="16" height="16" viewBox="0 0 16 16" fill="none" xmlns="http://www.w3.org/2000/svg">
<path d="M7.71875 12.8529C9.06693 12.8529 10.3599 12.3173 11.3132 11.364C12.2665 10.4107 12.8021 9.11771 12.8021 7.76953C12.8021 4.95675 10.5231 2.6862 7.71875 2.6862C4.90597 2.6862 2.63542 4.95675 2.63542 7.76953C2.63542 9.11771 3.17098 10.4107 4.12429 11.364C5.0776 12.3173 6.37057 12.8529 7.71875 12.8529ZM13.6493 0.144531C14.0987 0.144531 14.5297 0.323052 14.8475 0.640822C15.1652 0.958592 15.3438 1.38958 15.3438 1.83898V13.7001C15.3438 14.1495 15.1652 14.5805 14.8475 14.8982C14.5297 15.216 14.0987 15.3945 13.6493 15.3945H1.78819C0.847778 15.3945 0.09375 14.632 0.09375 13.7001V1.83898C0.09375 0.898559 0.847778 0.144531 1.78819 0.144531H13.6493ZM4.32986 7.76953C4.32986 6.87074 4.6869 6.00876 5.32244 5.37322C5.95798 4.73768 6.81996 4.38064 7.71875 4.38064C8.61754 4.38064 9.47952 4.73768 10.1151 5.37322C10.7506 6.00876 11.1076 6.87074 11.1076 7.76953C11.1076 8.66832 10.7506 9.5303 10.1151 10.1658C9.47952 10.8014 8.61754 11.1584 7.71875 11.1584C6.81996 11.1584 5.95798 10.8014 5.32244 10.1658C4.6869 9.5303 4.32986 8.66832 4.32986 7.76953Z" fill="black"/>
</svg>
