<svg width="19" height="21" viewBox="0 0 19 21" fill="none" xmlns="http://www.w3.org/2000/svg">
<path d="M1.71875 20.9531H17.7188C17.984 20.9531 18.2383 20.8478 18.4259 20.6602C18.6134 20.4727 18.7188 20.2183 18.7188 19.9531V3.95312C18.7188 2.29912 17.3727 0.953125 15.7188 0.953125H3.71875C2.06475 0.953125 0.71875 2.29912 0.71875 3.95312V19.9531C0.71875 20.2183 0.824107 20.4727 1.01164 20.6602C1.19918 20.8478 1.45353 20.9531 1.71875 20.9531ZM15.7188 2.87713C15.8501 2.87713 15.9801 2.90299 16.1014 2.95325C16.2228 3.0035 16.333 3.07716 16.4259 3.17002C16.5187 3.26288 16.5924 3.37312 16.6426 3.49444C16.6929 3.61577 16.7188 3.7458 16.7188 3.87712C16.7188 4.00845 16.6929 4.13848 16.6426 4.25981C16.5924 4.38113 16.5187 4.49137 16.4259 4.58423C16.333 4.67709 16.2228 4.75075 16.1014 4.801C15.9801 4.85126 15.8501 4.87712 15.7188 4.87712C15.4535 4.87712 15.1992 4.77177 15.0116 4.58423C14.8241 4.3967 14.7188 4.14234 14.7188 3.87712C14.7188 3.61191 14.8241 3.35755 15.0116 3.17002C15.1992 2.98248 15.4535 2.87713 15.7188 2.87713ZM12.7188 2.87713C12.8501 2.87713 12.9801 2.90299 13.1014 2.95325C13.2228 3.0035 13.333 3.07716 13.4259 3.17002C13.5187 3.26288 13.5924 3.37312 13.6426 3.49444C13.6929 3.61577 13.7188 3.7458 13.7188 3.87712C13.7188 4.00845 13.6929 4.13848 13.6426 4.25981C13.5924 4.38113 13.5187 4.49137 13.4259 4.58423C13.333 4.67709 13.2228 4.75075 13.1014 4.801C12.9801 4.85126 12.8501 4.87712 12.7188 4.87712C12.4535 4.87712 12.1992 4.77177 12.0116 4.58423C11.8241 4.3967 11.7188 4.14234 11.7188 3.87712C11.7188 3.61191 11.8241 3.35755 12.0116 3.17002C12.1992 2.98248 12.4535 2.87713 12.7188 2.87713ZM9.71875 5.95312C13.0278 5.95312 15.7188 8.64412 15.7188 11.9531C15.7188 15.2621 13.0278 17.9531 9.71875 17.9531C6.40975 17.9531 3.71875 15.2621 3.71875 11.9531C3.71875 8.64412 6.40975 5.95312 9.71875 5.95312Z" fill="black"/>
<path d="M10.4842 15.883C11.8832 15.622 13.0552 14.568 13.5072 13.218C13.8345 12.2704 13.7796 11.2327 13.3542 10.325C13.3076 10.2251 13.2282 10.1443 13.1292 10.0959C13.0302 10.0475 12.9176 10.0344 12.8102 10.059C12.2062 10.208 11.7912 10.507 11.3102 10.86C10.5242 11.437 9.54522 12.154 7.71822 12.154C6.90522 12.154 6.26822 12.008 5.73422 11.8L5.72122 11.809C5.70007 12.4109 5.81493 13.0099 6.05725 13.5613C6.29958 14.1127 6.66312 14.6024 7.12084 14.9939C7.57856 15.3854 8.11867 15.6687 8.70098 15.8226C9.2833 15.9765 9.89283 15.9972 10.4842 15.883Z" fill="black"/>
</svg>
